<svg width="256" height="256" xmlns="http://www.w3.org/2000/svg">
  <circle cx="128" cy="128" r="128" fill="#122037"/>
  <g transform="translate(128, 158)">
    <path d="M53.35-52.73L53.35 0L30.50 0L30.50-52.73Q30.50-57.22 28.96-60.78Q27.42-64.34 24.79-66.88Q22.15-69.43 18.59-70.80Q15.03-72.16 10.90-72.16L10.90-72.16L-29.09-72.16L-29.09 0L-51.94 0L-51.94-83.67Q-51.94-86.04-51.06-88.11Q-50.19-90.18-48.60-91.71Q-47.02-93.25-44.91-94.13Q-42.80-95.01-40.43-95.01L-40.43-95.01L11.07-95.01Q15.38-95.01 20.17-94.04Q24.96-93.08 29.66-90.92Q34.37-88.77 38.63-85.47Q42.89-82.18 46.19-77.48Q49.48-72.77 51.42-66.62Q53.35-60.47 53.35-52.73L53.35-52.73Z" fill="#ffffff"/>
  </g>
</svg>